Coordinates
version=1
nRows=15
nColumns=42
inDegrees=yes

Units are S.I. units (second, meters, Newtons, ...)
If the header above contains a line with 'inDegrees', this indicates whether rotational values are in degrees (yes) or radians (no).

endheader
time	pelvis_tilt	pelvis_list	pelvis_rotation	pelvis_tx	pelvis_ty	pelvis_tz	hip_flexion_r	hip_adduction_r	hip_rotation_r	knee_angle_r	knee_adduction_r	knee_angle_r_beta	ankle_angle_r	subtalar_angle_r	mtp_angle_r	hip_flexion_l	hip_adduction_l	hip_rotation_l	knee_angle_l	knee_adduction_l	knee_angle_l_beta	ankle_angle_l	subtalar_angle_l	mtp_angle_l	lumbar_extension	lumbar_bending	lumbar_rotation	arm_flex_r	arm_add_r	arm_rot_r	elbow_flex_r	pro_sup_r	wrist_flex_r	wrist_dev_r	arm_flex_l	arm_add_l	arm_rot_l	elbow_flex_l	pro_sup_l	wrist_flex_l	wrist_dev_l
      0.00000000	     -1.79230814	     -1.79538317	      2.33999884	     -2.01502501	      0.90245803	     -0.18615470	     16.06872283	     -6.58054292	      2.87543680	     53.04568684	     15.98413319	      0.92582189	      0.00000000	      2.51115629	     -9.59074037	     -0.00968294	     -6.80109086	     -3.59349976	      3.49404430	     19.31978849	      0.06098258	      7.75150263	      3.40616519	     -9.59074037	    -12.90419492	      1.57504560	     -2.13085198	     -4.50244642	    -14.26836033	     -5.43951580	     18.28701210	     90.00000001	      0.00000000	      0.00000000	     -1.38980172	    -12.63628090	      0.75996385	     23.34784138	     90.00000001	      0.00000000	      0.00000000
      0.01000000	     -1.07079221	     -1.80134459	      3.15516342	     -2.00464340	      0.90286879	     -0.18849195	     16.09845970	     -7.01959035	     -4.59378907	     46.05438896	     11.80557879	      0.80380072	     11.22997880	    -10.07649976	     -9.44279340	     -1.56296750	     -6.61070596	     -3.68758922	      3.37622663	     19.03644336	      0.05892627	      8.39899088	      4.74713809	     -9.44279340	    -13.55417735	      1.84901478	     -2.65496659	     -4.58817567	    -14.24915851	     -5.89334684	     18.25230006	     90.00000001	      0.00000000	      0.00000000	     -0.94833062	    -12.86964661	      1.22881871	     24.01692436	     90.00000001	      0.00000000	      0.00000000
      0.02000000	     -0.85214112	     -1.88742125	      3.76261010	     -1.99547942	      0.90263684	     -0.19004885	     16.54144826	     -6.98216823	     -5.32018172	     43.74926836	     11.78091471	      0.76356878	     11.17750214	    -10.93772746	     -9.36641931	     -2.43067105	     -6.60490257	     -3.47006469	      3.26549650	     18.92490502	      0.05699367	      9.03766377	      5.36905932	     -9.36641931	    -13.78862689	      2.11191504	     -3.00882149	     -4.55073797	    -14.18857991	     -6.16598377	     18.08055184	     90.00000001	      0.00000000	      0.00000000	     -0.42775785	    -13.13124360	      1.55400586	     24.64255862	     90.00000001	      0.00000000	      0.00000000
      0.03000000	     -1.08344920	     -1.65873711	      3.90622118	     -1.98653140	      0.90155847	     -0.19124371	     17.76490674	     -7.24538538	     -6.11165639	     41.90479486	     11.36580864	      0.73137664	     11.18326811	    -10.82251706	     -9.34590361	     -2.78163857	     -6.16180622	     -3.81117456	      3.46155851	     18.71862966	      0.06041559	      9.31477587	      5.42003854	     -9.34590361	    -13.56651651	      1.94503263	     -2.98123524	     -4.67703946	    -14.15992494	     -6.18305823	     18.17508556	     90.00000001	      0.00000000	      0.00000000	      0.06040883	    -13.27633339	      1.60516486	     25.12726206	     90.00000001	      0.00000000	      0.00000000
      0.04000000	     -0.57299748	     -2.13165578	      4.53930344	     -1.97715313	      0.90162204	     -0.19243996	     17.56086587	     -6.60657979	     -6.95919122	     38.93027241	     11.19608193	      0.67946143	     10.73580722	    -11.47160020	     -9.26881833	     -3.97656294	     -6.70677734	     -3.28807797	      3.21373531	     18.70044215	      0.05609026	     10.09104197	      5.97133494	     -9.26881833	    -14.10744158	      2.66926264	     -3.29995068	     -4.50140490	    -14.10221221	     -6.72084908	     17.94985812	     90.00000001	      0.00000000	      0.00000000	      0.54905097	    -13.51433637	      2.18311469	     25.74194692	     90.00000001	      0.00000000	      0.00000000
      0.05000000	     -0.85018996	     -1.82619685	      4.60611295	     -1.96825366	      0.90018479	     -0.19339148	     18.78331911	     -6.95936686	     -7.77738219	     37.05661098	     10.83069382	      0.64675987	     10.51244539	    -11.13416084	     -9.24974357	     -4.25876289	     -6.23473403	     -3.59138516	      3.44843139	     18.62464986	      0.06018648	     10.41823308	      5.96669770	     -9.24974357	    -13.85971998	      2.39735369	     -3.21624263	     -4.65965362	    -14.05182265	     -6.72322023	     18.04310463	     90.00000001	      0.00000000	      0.00000000	      1.03325826	    -13.68832280	      2.21277932	     26.21465036	     90.00000001	      0.00000000	      0.00000000
      0.06000000	     -0.53648099	     -2.24799928	      5.12417157	     -1.95912447	      0.89980856	     -0.19440948	     18.67302861	     -6.36884828	     -8.37651527	     33.76382741	     10.79436975	      0.58928996	      9.59080760	    -11.00671635	     -9.17354396	     -5.14927894	     -6.69139994	     -2.92660159	      3.31673073	     18.55638706	      0.05788787	     11.27428758	      6.11507930	     -9.17354396	    -14.22581903	      3.05296751	     -3.49030792	     -4.44744034	    -14.00178008	     -7.18728202	     17.81631928	     90.00000001	      0.00000000	      0.00000000	      1.47057197	    -13.89795139	      2.73656257	     26.73761182	     90.00000001	      0.00000000	      0.00000000
      0.07000000	     -0.81994750	     -2.08093842	      5.23098075	     -1.95040122	      0.89831854	     -0.19534119	     19.61848070	     -6.53496569	     -8.92605857	     31.28053159	     10.66182993	      0.54594827	      8.75867883	    -10.21456197	     -9.14154895	     -5.34324769	     -6.30234596	     -2.81138323	      3.54068109	     18.30877338	      0.06179654	     11.85154543	      6.07535373	     -9.14154895	    -14.01692943	      2.96870825	     -3.49485853	     -4.47019802	    -13.95595420	     -7.25164871	     17.83455402	     90.00000001	      0.00000000	      0.00000000	      1.89286391	    -14.06221164	      2.88154004	     27.20841155	     90.00000001	      0.00000000	      0.00000000
      0.08000000	     -0.64422005	     -2.27643427	      5.52199946	     -1.94113599	      0.89740161	     -0.19595574	     19.66101685	     -6.15196901	     -9.50529430	     28.06593371	     10.53953206	      0.48984295	      7.68171884	     -9.89024314	     -9.06164870	     -6.12432446	     -6.58749633	     -2.44172302	      3.50473053	     18.44441168	      0.06116909	     12.40756163	      5.76360635	     -9.06164870	    -14.24413029	      3.31674488	     -3.57860832	     -4.40312364	    -13.87650978	     -7.59180744	     17.73242204	     90.00000001	      0.00000000	      0.00000000	      2.31414187	    -14.26622779	      3.21828028	     27.62192963	     90.00000001	      0.00000000	      0.00000000
      0.09000000	     -0.75858879	     -2.22239741	      5.67794006	     -1.93209483	      0.89599587	     -0.19668861	     20.08585373	     -6.11036610	     -9.94458963	     25.02178938	     10.48650060	      0.43671261	      6.60574262	     -9.16905564	     -8.99371077	     -6.53385709	     -6.43909106	     -2.12258849	      3.63854082	     18.35273754	      0.06350452	     12.96211734	      5.43677262	     -8.99371077	    -14.20067986	      3.37432495	     -3.60956100	     -4.38083972	    -13.81041251	     -7.73273654	     17.66221828	     90.00000001	      0.00000000	      0.00000000	      2.69893572	    -14.43380676	      3.42749479	     28.00873775	     90.00000001	      0.00000000	      0.00000000
      0.10000000	     -0.87083331	     -2.15364564	      5.82377048	     -1.92293693	      0.89448109	     -0.19732162	     20.40721997	     -6.06553248	    -10.35164814	     21.87594114	     10.44406003	      0.38180720	      5.47463111	     -8.32250528	     -8.93046784	     -6.96596742	     -6.30299082	     -1.79946217	      3.76368259	     18.30108839	      0.06568865	     13.48417444	      5.10095797	     -8.93046784	    -14.15253312	      3.41542201	     -3.65781599	     -4.37507453	    -13.73906382	     -7.86002713	     17.61167399	     90.00000001	      0.00000000	      0.00000000	      3.04320470	    -14.61191214	      3.62430633	     28.37108964	     90.00000001	      0.00000000	      0.00000000
      0.11000000	     -0.97518363	     -2.10017190	      5.95031653	     -1.91360287	      0.89292116	     -0.19784592	     20.59896532	     -5.95838477	    -10.59151425	     18.58427239	     10.40873559	      0.32435674	      4.12575801	     -7.77454738	     -8.83305046	     -7.46937770	     -6.22232825	     -1.41833389	      3.76338632	     18.30629290	      0.06568348	     13.87518779	      4.64417077	     -8.83305046	    -14.10530298	      3.47046347	     -3.67124129	     -4.41255379	    -13.65408983	     -8.00795569	     17.62491456	     90.00000001	      0.00000000	      0.00000000	      3.35217023	    -14.77369730	      3.79462750	     28.74124403	     90.00000001	      0.00000000	      0.00000000
      0.12000000	     -1.42861923	     -1.74883185	      6.01535631	     -1.90436808	      0.89074207	     -0.19857953	     21.34309025	     -6.32275850	    -11.09235299	     15.90063742	     10.40527281	      0.27751848	      3.24796830	     -6.41251060	     -8.81033834	     -7.51606106	     -5.65388414	     -1.29078275	      4.06648663	     18.07851092	      0.07097358	     14.39861823	      4.54948690	     -8.81033834	    -13.68792136	      3.18467448	     -3.78584338	     -4.47099654	    -13.57041533	     -7.99581205	     17.64329504	     90.00000001	      0.00000000	      0.00000000	      3.54928433	    -14.94324519	      3.90987158	     29.04065461	     90.00000001	      0.00000000	      0.00000000
      0.13000000	     -1.23859242	     -1.74531204	      6.26287100	     -1.89442458	      0.88941734	     -0.19898918	     20.91778858	     -6.12763208	    -11.32868169	     12.47401767	     10.40128964	      0.21771268	      2.57958915	     -5.50592087	     -8.75613988	     -8.38445088	     -5.79786014	     -0.96588281	      4.08933585	     18.24988457	      0.07137237	     14.79168838	      4.24985622	     -8.75613988	    -13.91516348	      3.33466855	     -3.88852405	     -4.48574115	    -13.45270998	     -8.13356317	     17.49882952	     90.00000001	      0.00000000	      0.00000000	      3.81674286	    -15.14021325	      4.11718242	     29.31528170	     90.00000001	      0.00000000	      0.00000000
      0.14000000	     -1.36512667	     -1.54064284	      6.40853753	     -1.88451705	      0.88758271	     -0.19950764	     20.99472461	     -6.21594307	    -11.44870871	      9.61272439	     10.38897009	      0.16777369	      1.88298005	     -4.82535780	     -8.69314197	     -8.94528110	     -5.60621120	     -0.68312964	      4.09775820	     18.29619111	      0.07151937	     15.11097587	      4.00682049	     -8.69314197	    -13.80085482	      3.24675629	     -4.03263683	     -4.55164190	    -13.34906081	     -8.19636743	     17.47019784	     90.00000001	      0.00000000	      0.00000000	      3.96157021	    -15.31294228	      4.24970756	     29.53797075	     90.00000001	      0.00000000	      0.00000000
